<svg width="55" height="47" viewBox="0 0 55 47" fill="none" xmlns="http://www.w3.org/2000/svg">
<path d="M27.8069 7.27026C27.2892 7.02432 19.7977 1.03394 8.05664 1.03394H6.44531V6.41348C3.02715 6.91543 0.741318 7.56885 0 7.73737V45.9662C1.12696 45.816 12.4482 41.8588 27.1092 45.4726L27.5 45.569L27.8908 45.4726C42.5686 41.8545 53.868 45.8152 55 45.9662V7.73737C54.2534 7.6395 42.5816 3.83233 27.8069 7.27026ZM3.22266 41.9359V10.2341C4.2885 9.99864 5.3654 9.79623 6.44531 9.6275V39.165H8.05664C11.5306 39.165 15.0113 39.766 18.284 40.9018C13.2481 40.5666 8.16868 40.9107 3.22266 41.9359ZM25.8887 40.9838C21.0648 38.0328 15.3932 36.3013 9.66797 36.0261V4.25431C19.3683 4.76876 25.3927 9.58492 25.8887 9.82822V40.9838ZM51.7773 41.9359C44.3228 40.3908 36.5657 40.3908 29.1113 41.9359V10.2341C36.5525 8.58981 44.336 8.58981 51.7773 10.2341V41.9359Z" fill="#32B47A"/>
</svg>
