<svg width="64" height="64" viewBox="0 0 64 64" fill="none" xmlns="http://www.w3.org/2000/svg">
<g clip-path="url(#clip0_175_365)">
<path d="M35.7422 64H64V35.7422H35.7422V64ZM39.4888 39.4888H60.2534V60.2534H39.4888V39.4888Z" fill="#2DBC7C"/>
<path d="M48.73 30.5396C57.1499 30.5396 64 23.6895 64 15.2695C64 6.8501 57.1499 0 48.73 0C40.3101 0 33.4604 6.8501 33.4604 15.27C33.4604 23.6899 40.3105 30.5396 48.73 30.5396ZM48.73 3.74658C55.084 3.74658 60.2534 8.91602 60.2534 15.27C60.2534 21.624 55.084 26.793 48.73 26.793C42.376 26.793 37.207 21.6235 37.207 15.2695C37.207 8.91553 42.3765 3.74658 48.73 3.74658Z" fill="#2DBC7C"/>
<path d="M0 28.9141H32.8379L16.4189 0L0 28.9141ZM6.43604 25.1675L16.4189 7.5874L26.4019 25.1675H6.43604Z" fill="#2DBC7C"/>
<path d="M7.95605 36.4395L0 50.2197L7.95605 64H23.8682L31.8247 50.2197L23.8682 36.439H7.95605V36.4395ZM21.7051 60.2534H10.1191L4.32617 50.2197L10.1191 40.1855H21.7051L27.498 50.2197L21.7051 60.2534Z" fill="#2DBC7C"/>
</g>
<defs>
<clipPath id="clip0_175_365">
<rect width="64" height="64" fill="white"/>
</clipPath>
</defs>
</svg>
