<svg width="64" height="64" viewBox="0 0 64 64" fill="none" xmlns="http://www.w3.org/2000/svg">
<g clip-path="url(#clip0_171_331)">
<path d="M8.11162 45.499C10.8902 56.3039 20.7101 64 32 64C43.2886 64 53.1085 56.3039 55.8884 45.499C58.8246 44.979 61.0621 42.4078 61.0621 39.3229C61.0621 36.2392 58.8246 33.6667 55.8884 33.1479C53.3884 23.4318 45.1986 16.2307 35.3661 14.8782C35.3657 14.8782 35.3655 14.878 35.3651 14.878C37.108 12.9735 38.0232 10.9343 38.0232 8.92717C38.0232 5.67929 35.7511 2.75666 31.2697 0.24054C30.3669 -0.26671 29.224 0.0545396 28.7169 0.957415C28.2099 1.86041 28.5309 3.00329 29.4337 3.51029C31.639 4.74854 34.2687 6.69254 34.2731 8.92129C34.2782 11.4289 31.1242 13.8647 29.6512 14.7583C19.3694 15.7399 10.6962 23.0984 8.11137 33.1479C5.17512 33.6667 2.93762 36.2392 2.93762 39.3229C2.93787 42.4078 5.17537 44.979 8.11162 45.499ZM9.45275 36.8129C10.414 36.9042 11.284 36.2504 11.4677 35.3042C13.3715 25.5068 22.0064 18.3969 32 18.3969C41.9936 18.3969 50.6285 25.5068 52.5322 35.3042C52.716 36.2504 53.5885 36.9042 54.5472 36.8129C56.0815 36.6773 57.3121 37.8768 57.3121 39.3229C57.3121 40.7675 56.0829 41.9685 54.5472 41.8329C53.5885 41.7417 52.716 42.3954 52.5322 43.3417C50.6285 53.1389 41.9936 60.25 32 60.25C22.0051 60.25 13.3702 53.1389 11.4677 43.3428C11.2921 42.4377 10.4667 41.7464 9.45275 41.8328C7.91837 41.9683 6.68775 40.7689 6.68775 39.3228C6.68787 37.878 7.917 36.6773 9.45275 36.8129Z" fill="#FFCF3C"/>
<path d="M24.9682 48.71C24.1611 49.3588 24.0327 50.539 24.6815 51.3462C26.4746 53.5768 29.1422 54.8562 32.0005 54.8562C34.8592 54.8562 37.5267 53.5767 39.319 51.3458C39.9675 50.5385 39.8389 49.3584 39.0316 48.7098C38.2242 48.0613 37.0441 48.1899 36.3956 48.9972C35.3189 50.3375 33.7169 51.1062 32.0004 51.1062C30.2841 51.1062 28.6817 50.3374 27.6042 48.9968C26.9556 48.1896 25.7751 48.0613 24.9682 48.71Z" fill="#FFCF3C"/>
</g>
<defs>
<clipPath id="clip0_171_331">
<rect width="64" height="64" fill="white"/>
</clipPath>
</defs>
</svg>
