<svg width="26" height="26" viewBox="0 0 26 26" fill="none" xmlns="http://www.w3.org/2000/svg">
<g clip-path="url(#clip0_25_86)">
<path d="M22.0851 3.91154L18.5104 4.8262L15.3933 2.85168L15.1586 6.53412L12.3172 8.8885L14.9739 9.94301L0 24.9167L1.0799 25.9966L16.0538 11.0229L17.1081 13.6796L19.4625 10.8382L23.1449 10.6036L21.1704 7.48627L22.0851 3.91154ZM18.7073 9.35585L17.5769 10.7202L16.9232 9.07338L15.2766 8.41997L16.6408 7.28949L16.7534 5.52147L18.2501 6.46945L19.9664 6.03027L19.5272 7.74652L20.4752 9.24318L18.7073 9.35585Z" fill="#EF584E"/>
<path d="M18.2217 0H19.7489V2.4613H18.2217V0Z" fill="#EF584E"/>
<path d="M23.5389 6.43237H26V7.95978H23.5389V6.43237Z" fill="#EF584E"/>
<path d="M23.0495 1.85056L24.8955 0.00457764L25.9754 1.08467L24.1296 2.93045L23.0495 1.85056Z" fill="#EF584E"/>
</g>
<defs>
<clipPath id="clip0_25_86">
<rect width="26" height="26" fill="white"/>
</clipPath>
</defs>
</svg>
