<svg width="26" height="26" viewBox="0 0 26 26" fill="none" xmlns="http://www.w3.org/2000/svg">
<g clip-path="url(#clip0_25_72)">
<path d="M22.7013 2.4568V0H18.1309V2.4568H7.86906V0H3.29875V2.4568H0V26H18.8802L26 18.9422V2.4568H22.7013ZM19.6544 1.53867H21.1778V4.42762H19.6544V1.53867ZM4.82219 1.53867H6.34562V4.42762H4.82219V1.53867ZM19.3293 23.3621V19.3855H23.3575L19.3293 23.3621ZM24.4517 17.8621H17.8059V24.4227H1.54832V9.64844H24.4517V17.8621ZM1.54832 8.125V3.98023H3.29875V5.95105H7.86906V3.98023H18.1309V5.95105H22.7013V3.98023H24.4517V8.125H1.54832Z" fill="#32B47A"/>
</g>
<defs>
<clipPath id="clip0_25_72">
<rect width="26" height="26" fill="white"/>
</clipPath>
</defs>
</svg>
