<svg width="26" height="26" viewBox="0 0 26 26" fill="none" xmlns="http://www.w3.org/2000/svg">
<g clip-path="url(#clip0_25_80)">
<path d="M23.5515 24.458V12.7245L24.9204 14.0935L25.9977 13.0163L22.697 9.71557V2.04577H18.1267V5.14531L13 0.0185852L0.00233594 13.0163L1.07956 14.0935L2.44852 12.7245V24.458H0V25.9814H26V24.458H23.5515ZM19.6502 3.56921H21.1736V8.19218L19.6502 6.66875V3.56921ZM3.97196 11.2011L13 2.17303L22.028 11.2011V24.458H3.97196V11.2011Z" fill="#513CF3"/>
<path d="M15.2852 8.5899C15.2852 7.32987 14.26 6.30475 13 6.30475C11.74 6.30475 10.7148 7.32987 10.7148 8.5899C10.7148 9.84994 11.74 10.8751 13 10.8751C14.26 10.8751 15.2852 9.84999 15.2852 8.5899ZM13 9.35162C12.58 9.35162 12.2383 9.00992 12.2383 8.5899C12.2383 8.16989 12.58 7.82819 13 7.82819C13.42 7.82819 13.7617 8.16989 13.7617 8.5899C13.7617 9.00992 13.42 9.35162 13 9.35162Z" fill="#513CF3"/>
</g>
<defs>
<clipPath id="clip0_25_80">
<rect width="26" height="26" fill="white"/>
</clipPath>
</defs>
</svg>
