<svg width="30" height="26" viewBox="0 0 30 26" fill="none" xmlns="http://www.w3.org/2000/svg">
<g clip-path="url(#clip0_25_68)">
<path d="M19.3945 18.9034L27.2021 13.7555L19.3945 8.60764V18.9034ZM21.1523 11.8721L24.0088 13.7555L21.1523 15.6389V11.8721Z" fill="#FFCF3C"/>
<path d="M15.1674 4.02181C14.885 3.88576 10.7988 0.57193 4.39453 0.57193H3.51562V3.54785C1.65117 3.82552 0.404355 4.18699 0 4.28021V25.4281C0.614707 25.345 6.7899 23.1559 14.7868 25.155L15 25.2083L15.2132 25.155C23.2192 23.1535 29.3825 25.3446 30 25.4281V4.28021C29.5928 4.22607 23.2263 2.11998 15.1674 4.02181ZM1.75781 23.1986V5.66138C2.33918 5.53113 2.92658 5.41916 3.51562 5.32582V21.6657H4.39453C6.28939 21.6657 8.18801 21.9982 9.97307 22.6265C7.22625 22.4411 4.45564 22.6314 1.75781 23.1986ZM14.1211 22.6719C11.4899 21.0394 8.39631 20.0815 5.27344 19.9293V2.35341C10.5645 2.638 13.8506 5.30226 14.1211 5.43685V22.6719ZM28.2422 23.1986C24.1761 22.3438 19.9449 22.3438 15.8789 23.1986V5.66138C19.9378 4.75178 24.1833 4.75178 28.2422 5.66138V23.1986Z" fill="#FFCF3C"/>
</g>
<defs>
<clipPath id="clip0_25_68">
<rect width="30" height="26" fill="white"/>
</clipPath>
</defs>
</svg>
